<svg id="Layer_1" data-name="Layer 1" xmlns="http://www.w3.org/2000/svg" viewBox="0 0 99.07 108.94"><title>logo</title><path d="M19.82,21.25a87.06,87.06,0,0,0-6,34c.32,11,2.72,19.17,5,27,2.14,7.34,3.49,11.82,7,17a45.16,45.16,0,0,0,15.71,14.14c15,8.09,33.6,6.84,47.29-1.14a45.32,45.32,0,0,0,11-9c-1.22-.17-9.38-1.51-14-9a18.55,18.55,0,0,1,11-28,15.57,15.57,0,0,1,9,0c2,.72,3.76,1.33,5,3,.37.5.67,1,1,1,.77-.1.94-3.18,1-5,.46-14-3.58-34.13-6.65-41.21-.17-.4-.35-.79-.35-.79-1.49-3.38-2.94-6.11-4-8a18.27,18.27,0,0,0-6,1,19.12,19.12,0,0,0-4,2,42.8,42.8,0,0,0-8,7c-1.78,1.86-4.48,4.61-8,8-1.59,1.37-5,4.08-7,3-1.61-.89-1.5-4-1-10,.3-3.65.7-9.12,1-16a57.72,57.72,0,0,0-12,0c-6,.65-7.46,1.81-8,3a4.23,4.23,0,0,0,0,3c4.9,10,9.28,20.44,7,22a2.36,2.36,0,0,1-2,0c-6.08-1.7-10-5.09-14-8-3.75-2.73-7.16-5.19-12-7A37.88,37.88,0,0,0,19.82,21.25Z" transform="translate(-13.79 -9.94)"/></svg>